<svg xmlns="http://www.w3.org/2000/svg" version="1.1" xmlns:xlink="http://www.w3.org/1999/xlink" xmlns:svgjs="http://svgjs.com/svgjs" preserveAspectRatio="xMidYMid meet" viewBox="0 0 400 485.9114799499512"><circle r="0" cx="400" cy="0" fill="none" stroke-width="0" stroke="transparent"></circle><circle r="0" cx="0" cy="0" fill="none" stroke-width="0" stroke="transparent"></circle><rect width="100%" height="100%" fill="none"></rect><text x="200" y="5" font-family="Arial, &quot;Helvetica Neue&quot;, Helvetica, sans-serif" font-size="48" text-anchor="middle" fill="#000000"><tspan dy="27.3" x="200"></tspan></text><circle r="14.399999999999999" cx="80" cy="24" fill="none" stroke-width="2" stroke="#000000"></circle><circle r="14.399999999999999" cx="128" cy="24" fill="none" stroke-width="2" stroke="#000000"></circle><circle r="14.399999999999999" cx="176" cy="24" fill="none" stroke-width="2" stroke="#000000"></circle><circle r="14.399999999999999" cx="224" cy="24" fill="none" stroke-width="2" stroke="#000000"></circle><circle r="14.399999999999999" cx="272" cy="24" fill="none" stroke-width="2" stroke="#000000"></circle><line x1="79" y1="53" x2="321" y2="53" stroke-width="10" stroke="#000000"></line><line x1="80" y1="130" x2="320" y2="130" stroke-width="2" stroke="#000000"></line><line x1="80" y1="202" x2="320" y2="202" stroke-width="2" stroke="#000000"></line><line x1="80" y1="274" x2="320" y2="274" stroke-width="2" stroke="#000000"></line><line x1="80" y1="346" x2="320" y2="346" stroke-width="2" stroke="#000000"></line><line x1="80" y1="418" x2="320" y2="418" stroke-width="2" stroke="#000000"></line><line x1="80" y1="58" x2="80" y2="419" stroke-width="2" stroke="#000000"></line><line x1="128" y1="58" x2="128" y2="419" stroke-width="2" stroke="#000000"></line><line x1="176" y1="58" x2="176" y2="419" stroke-width="2" stroke="#000000"></line><line x1="224" y1="58" x2="224" y2="419" stroke-width="2" stroke="#000000"></line><line x1="272" y1="58" x2="272" y2="419" stroke-width="2" stroke="#000000"></line><line x1="320" y1="58" x2="320" y2="419" stroke-width="2" stroke="#000000"></line><circle r="15.600000000000001" cx="320" cy="94" fill="#000000" stroke-width="0" stroke="#000000"></circle><circle r="15.600000000000001" cx="320" cy="166" fill="#000000" stroke-width="0" stroke="#000000"></circle><circle r="15.600000000000001" cx="320" cy="238" fill="#000000" stroke-width="0" stroke="#000000"></circle><circle r="15.600000000000001" cx="320" cy="310" fill="#000000" stroke-width="0" stroke="#000000"></circle><circle r="15.600000000000001" cx="320" cy="382" fill="#000000" stroke-width="0" stroke="#000000"></circle><text x="80" y="426.98215808868406" font-family="Arial, &quot;Helvetica Neue&quot;, Helvetica, sans-serif" font-size="28" text-anchor="middle" fill="#000000"><tspan dy="36.4" x="80">E</tspan></text><text x="128" y="426.98215808868406" font-family="Arial, &quot;Helvetica Neue&quot;, Helvetica, sans-serif" font-size="28" text-anchor="middle" fill="#000000"><tspan dy="36.4" x="128">A</tspan></text><text x="176" y="426.98215808868406" font-family="Arial, &quot;Helvetica Neue&quot;, Helvetica, sans-serif" font-size="28" text-anchor="middle" fill="#000000"><tspan dy="36.4" x="176">D</tspan></text><text x="224" y="426.98215808868406" font-family="Arial, &quot;Helvetica Neue&quot;, Helvetica, sans-serif" font-size="28" text-anchor="middle" fill="#000000"><tspan dy="36.4" x="224">G</tspan></text><text x="272" y="426.98215808868406" font-family="Arial, &quot;Helvetica Neue&quot;, Helvetica, sans-serif" font-size="28" text-anchor="middle" fill="#000000"><tspan dy="36.4" x="272">B</tspan></text><text x="320" y="426.98215808868406" font-family="Arial, &quot;Helvetica Neue&quot;, Helvetica, sans-serif" font-size="28" text-anchor="middle" fill="#000000"><tspan dy="36.4" x="320">e</tspan></text></svg>